<mxfile host="Electron" agent="Mozilla/5.0 (Macintosh; Intel Mac OS X 10_15_7) AppleWebKit/537.36 (KHTML, like Gecko) draw.io/26.2.2 Chrome/134.0.6998.178 Electron/35.1.2 Safari/537.36" version="26.2.2">
  <diagram name="Страница — 1" id="ROfTSqzu7LOD-0DgDm4h">
    <mxGraphModel dx="1236" dy="2081" grid="1" gridSize="10" guides="1" tooltips="1" connect="1" arrows="1" fold="1" page="1" pageScale="1" pageWidth="827" pageHeight="1169" math="0" shadow="0">
      <root>
        <mxCell id="0" />
        <mxCell id="1" parent="0" />
        <mxCell id="lcRF8J7kT3ZUYSk8BuyR-16" value="" style="rounded=1;whiteSpace=wrap;html=1;" vertex="1" parent="1">
          <mxGeometry y="-110" width="820" height="1090" as="geometry" />
        </mxCell>
        <mxCell id="lcRF8J7kT3ZUYSk8BuyR-14" value="Запрос от пользователя" style="edgeStyle=orthogonalEdgeStyle;rounded=0;orthogonalLoop=1;jettySize=auto;html=1;entryX=0;entryY=0.25;entryDx=0;entryDy=0;strokeWidth=4;" edge="1" parent="1" source="lcRF8J7kT3ZUYSk8BuyR-1" target="lcRF8J7kT3ZUYSk8BuyR-10">
          <mxGeometry relative="1" as="geometry">
            <Array as="points">
              <mxPoint x="150" y="130" />
              <mxPoint x="150" y="300" />
            </Array>
          </mxGeometry>
        </mxCell>
        <mxCell id="lcRF8J7kT3ZUYSk8BuyR-1" value="View" style="swimlane;whiteSpace=wrap;html=1;strokeWidth=3;" vertex="1" parent="1">
          <mxGeometry x="190" y="80" width="200" height="100" as="geometry" />
        </mxCell>
        <mxCell id="lcRF8J7kT3ZUYSk8BuyR-11" style="edgeStyle=orthogonalEdgeStyle;rounded=0;orthogonalLoop=1;jettySize=auto;html=1;entryX=0.5;entryY=0;entryDx=0;entryDy=0;strokeWidth=4;" edge="1" parent="1" source="lcRF8J7kT3ZUYSk8BuyR-2" target="lcRF8J7kT3ZUYSk8BuyR-1">
          <mxGeometry relative="1" as="geometry" />
        </mxCell>
        <mxCell id="lcRF8J7kT3ZUYSk8BuyR-2" value="User" style="shape=umlActor;verticalLabelPosition=bottom;verticalAlign=top;html=1;outlineConnect=0;strokeWidth=3;" vertex="1" parent="1">
          <mxGeometry x="410" y="-40" width="30" height="60" as="geometry" />
        </mxCell>
        <mxCell id="lcRF8J7kT3ZUYSk8BuyR-13" value="Ответ о результате&lt;div&gt;действий с моделью&lt;/div&gt;" style="edgeStyle=orthogonalEdgeStyle;rounded=0;orthogonalLoop=1;jettySize=auto;html=1;entryX=1;entryY=0.5;entryDx=0;entryDy=0;strokeWidth=4;" edge="1" parent="1" source="lcRF8J7kT3ZUYSk8BuyR-9" target="lcRF8J7kT3ZUYSk8BuyR-10">
          <mxGeometry relative="1" as="geometry">
            <Array as="points">
              <mxPoint x="570" y="758" />
              <mxPoint x="570" y="350" />
            </Array>
          </mxGeometry>
        </mxCell>
        <mxCell id="lcRF8J7kT3ZUYSk8BuyR-9" value="Model" style="swimlane;whiteSpace=wrap;html=1;strokeWidth=3;" vertex="1" parent="1">
          <mxGeometry x="215" y="610" width="270" height="295" as="geometry" />
        </mxCell>
        <mxCell id="lcRF8J7kT3ZUYSk8BuyR-3" value="Database" style="strokeWidth=2;html=1;shape=mxgraph.flowchart.database;whiteSpace=wrap;" vertex="1" parent="lcRF8J7kT3ZUYSk8BuyR-9">
          <mxGeometry x="170" y="205" width="60" height="60" as="geometry" />
        </mxCell>
        <mxCell id="lcRF8J7kT3ZUYSk8BuyR-4" value="User" style="swimlane;fontStyle=0;childLayout=stackLayout;horizontal=1;startSize=30;horizontalStack=0;resizeParent=1;resizeParentMax=0;resizeLast=0;collapsible=1;marginBottom=0;whiteSpace=wrap;html=1;strokeWidth=2;" vertex="1" parent="lcRF8J7kT3ZUYSk8BuyR-9">
          <mxGeometry x="10" y="75" width="140" height="90" as="geometry" />
        </mxCell>
        <mxCell id="lcRF8J7kT3ZUYSk8BuyR-5" value="id" style="text;strokeColor=none;fillColor=none;align=left;verticalAlign=middle;spacingLeft=4;spacingRight=4;overflow=hidden;points=[[0,0.5],[1,0.5]];portConstraint=eastwest;rotatable=0;whiteSpace=wrap;html=1;" vertex="1" parent="lcRF8J7kT3ZUYSk8BuyR-4">
          <mxGeometry y="30" width="140" height="30" as="geometry" />
        </mxCell>
        <mxCell id="lcRF8J7kT3ZUYSk8BuyR-6" value="..." style="text;strokeColor=none;fillColor=none;align=left;verticalAlign=middle;spacingLeft=4;spacingRight=4;overflow=hidden;points=[[0,0.5],[1,0.5]];portConstraint=eastwest;rotatable=0;whiteSpace=wrap;html=1;" vertex="1" parent="lcRF8J7kT3ZUYSk8BuyR-4">
          <mxGeometry y="60" width="140" height="30" as="geometry" />
        </mxCell>
        <mxCell id="lcRF8J7kT3ZUYSk8BuyR-8" style="edgeStyle=orthogonalEdgeStyle;rounded=0;orthogonalLoop=1;jettySize=auto;html=1;entryX=0;entryY=0.5;entryDx=0;entryDy=0;entryPerimeter=0;strokeWidth=5;" edge="1" parent="lcRF8J7kT3ZUYSk8BuyR-9" source="lcRF8J7kT3ZUYSk8BuyR-4" target="lcRF8J7kT3ZUYSk8BuyR-3">
          <mxGeometry relative="1" as="geometry">
            <Array as="points">
              <mxPoint x="80" y="235" />
            </Array>
          </mxGeometry>
        </mxCell>
        <mxCell id="lcRF8J7kT3ZUYSk8BuyR-12" value="Запрос к модели (CRUD)" style="edgeStyle=orthogonalEdgeStyle;rounded=0;orthogonalLoop=1;jettySize=auto;html=1;strokeWidth=4;entryX=0;entryY=0.5;entryDx=0;entryDy=0;" edge="1" parent="1" source="lcRF8J7kT3ZUYSk8BuyR-10" target="lcRF8J7kT3ZUYSk8BuyR-9">
          <mxGeometry relative="1" as="geometry">
            <mxPoint x="210" y="758" as="targetPoint" />
            <Array as="points">
              <mxPoint x="120" y="350" />
              <mxPoint x="120" y="758" />
            </Array>
          </mxGeometry>
        </mxCell>
        <mxCell id="lcRF8J7kT3ZUYSk8BuyR-15" value="Обновление выводимой информации&lt;div&gt;как результат выполненного запроса&lt;/div&gt;" style="edgeStyle=orthogonalEdgeStyle;rounded=0;orthogonalLoop=1;jettySize=auto;html=1;entryX=1;entryY=0.5;entryDx=0;entryDy=0;strokeWidth=4;" edge="1" parent="1" source="lcRF8J7kT3ZUYSk8BuyR-10" target="lcRF8J7kT3ZUYSk8BuyR-1">
          <mxGeometry relative="1" as="geometry">
            <Array as="points">
              <mxPoint x="460" y="300" />
              <mxPoint x="460" y="130" />
            </Array>
          </mxGeometry>
        </mxCell>
        <mxCell id="lcRF8J7kT3ZUYSk8BuyR-10" value="Presenter" style="swimlane;whiteSpace=wrap;html=1;strokeWidth=3;" vertex="1" parent="1">
          <mxGeometry x="190" y="250" width="200" height="200" as="geometry" />
        </mxCell>
      </root>
    </mxGraphModel>
  </diagram>
</mxfile>
